HIERARCHY
ROOT joint_Root
{
	OFFSET 0.0 0.0 0.0
	CHANNELS 6 Xposition Yposition Zposition Zrotation Xrotation Yrotation 
	JOINT Hips
	{
		OFFSET 4.5925 91.4895 -427.239
		CHANNELS 6 Xposition Yposition Zposition Zrotation Xrotation Yrotation 
		JOINT Spine
		{
			OFFSET 15.7357 0.0 0.0
			CHANNELS 6 Xposition Yposition Zposition Zrotation Xrotation Yrotation 
			JOINT Chest
			{
				OFFSET 8.98455 -0.406207 0.0
				CHANNELS 6 Xposition Yposition Zposition Zrotation Xrotation Yrotation 
				JOINT Neck
				{
					OFFSET 16.3773 0.0 0.0
					CHANNELS 6 Xposition Yposition Zposition Zrotation Xrotation Yrotation 
					JOINT Head
					{
						OFFSET 6.45672 0.0 0.0
						CHANNELS 6 Xposition Yposition Zposition Zrotation Xrotation Yrotation 
						End Site
						{
							OFFSET 0.0 0.0 0.0
						}
					}
				}
				JOINT Shoulder_L
				{
					OFFSET 12.9942 -0.242716 4.98039
					CHANNELS 6 Xposition Yposition Zposition Zrotation Xrotation Yrotation 
					JOINT UpperArm_L
					{
						OFFSET 5.34809 0.0 0.0
						CHANNELS 6 Xposition Yposition Zposition Zrotation Xrotation Yrotation 
						JOINT LowerArm_L
						{
							OFFSET 24.3286 1.87007e-05 0.0
							CHANNELS 6 Xposition Yposition Zposition Zrotation Xrotation Yrotation 
							JOINT Hand_L
							{
								OFFSET 22.2916 0.0 0.0
								CHANNELS 6 Xposition Yposition Zposition Zrotation Xrotation Yrotation 
								End Site
								{
									OFFSET 0.0 0.0 0.0
								}
							}
						}
					}
				}
				JOINT Shoulder_R
				{
					OFFSET 12.9945 -0.242716 -4.98039
					CHANNELS 6 Xposition Yposition Zposition Zrotation Xrotation Yrotation 
					JOINT UpperArm_R
					{
						OFFSET -5.34813 0.0 0.0
						CHANNELS 6 Xposition Yposition Zposition Zrotation Xrotation Yrotation 
						JOINT LowerArm_R
						{
							OFFSET -24.3289 0.000322201 0.0
							CHANNELS 6 Xposition Yposition Zposition Zrotation Xrotation Yrotation 
							JOINT Hand_R
							{
								OFFSET -22.2915 -0.000108084 0.0
								CHANNELS 6 Xposition Yposition Zposition Zrotation Xrotation Yrotation 
								End Site
								{
									OFFSET 0.0 0.0 0.0
								}
							}
						}
					}
				}
			}
		}
		JOINT UpperLeg_L
		{
			OFFSET -2.19248 -6.46944 0.0
			CHANNELS 6 Xposition Yposition Zposition Zrotation Xrotation Yrotation 
			JOINT LowerLeg_L
			{
				OFFSET 39.0811 0.0 -1.23785e-05
				CHANNELS 6 Xposition Yposition Zposition Zrotation Xrotation Yrotation 
				JOINT Foot_L
				{
					OFFSET 40.9854 0.0 -1.26872e-05
					CHANNELS 6 Xposition Yposition Zposition Zrotation Xrotation Yrotation 
					JOINT Toes_L
					{
						OFFSET 11.7543 0.0 0.0
						CHANNELS 6 Xposition Yposition Zposition Zrotation Xrotation Yrotation 
						End Site
						{
							OFFSET 0.0 0.0 0.0
						}
					}
				}
			}
		}
		JOINT UpperLeg_R
		{
			OFFSET -2.19251 6.46944 0.0
			CHANNELS 6 Xposition Yposition Zposition Zrotation Xrotation Yrotation 
			JOINT LowerLeg_R
			{
				OFFSET -39.0811 -0.00228153 -0.0401928
				CHANNELS 6 Xposition Yposition Zposition Zrotation Xrotation Yrotation 
				JOINT Foot_R
				{
					OFFSET -40.9854 0.0 0.0
					CHANNELS 6 Xposition Yposition Zposition Zrotation Xrotation Yrotation 
					JOINT Toes_R
					{
						OFFSET -11.7543 0.0 0.0
						CHANNELS 6 Xposition Yposition Zposition Zrotation Xrotation Yrotation 
						End Site
						{
							OFFSET 0.0 0.0 0.0
						}
					}
				}
			}
		}
	}
}
MOTION
Frames:	4
Frame Time:	0.0333333
0.000000 0.000000 0.000000 0.000000 0.000000 -0.000000 0.737621 92.318100 34.948300 -82.532300 -11.549200 166.133000 15.735700 0.000005 -0.000001 33.181600 79.836100 -30.052400 8.984550 -0.406207 -0.000000 3.987130 -17.094900 6.887420 16.377300 -0.000001 -0.000001 -2.229540 -0.768169 0.960149 6.456720 -0.000001 -0.000000 -2.300880 6.538890 4.862360 12.994200 -0.242716 4.980390 -87.125100 -13.362600 -77.744500 5.348090 -0.000007 -0.000001 -62.896400 5.699110 -53.564500 24.328600 0.000019 0.000005 9.411380 -6.157400 -122.907000 22.291600 -0.000001 0.000005 -4.427340 5.414100 -3.400940 12.994500 -0.242716 -4.980390 91.964300 -6.316780 -72.692600 -5.348130 -0.000001 -0.000004 -74.123900 31.842800 50.688000 -24.328900 0.000322 -0.000009 -16.276100 -7.261210 -66.592300 -22.291500 -0.000108 -0.000004 11.235100 5.603750 -11.568700 -2.192480 -6.469440 -0.000000 -164.392000 -16.255500 7.967110 39.081100 -0.000007 -0.000012 0.046808 -0.146903 17.673600 40.985400 -0.000006 -0.000013 -6.700130 13.586500 -29.435700 11.754300 -0.000000 0.000003 -0.025182 -0.194479 -24.533800 -2.192510 6.469440 -0.000001 -172.768000 -3.755520 123.718000 -39.081100 -0.002282 -0.040193 0.155286 -0.013702 84.878700 -40.985400 0.000008 0.000006 11.284700 -7.142010 -52.688200 -11.754300 -0.000006 -0.000006 -0.011321 -0.113258 -21.189300
0.000000 0.000000 0.000000 0.000000 0.000000 -0.000000 0.511709 94.742800 23.086800 -83.245100 -10.891500 165.089000 15.735700 0.000005 -0.000001 28.953600 79.415300 -25.863000 8.984550 -0.406207 -0.000000 3.144670 -18.631700 6.733120 16.377300 -0.000001 -0.000001 -1.335980 0.178989 1.324780 6.456720 -0.000001 -0.000000 -2.466430 8.172350 4.991610 12.994200 -0.242716 4.980390 -85.619900 -16.425400 -74.844500 5.348090 -0.000007 -0.000001 -59.648100 7.625620 -56.561100 24.328600 0.000019 0.000005 10.594300 -6.906000 -122.736000 22.291600 -0.000001 0.000005 -5.465530 5.402320 -3.012270 12.994500 -0.242716 -4.980390 93.718700 -10.778100 -70.837000 -5.348130 -0.000001 -0.000004 -74.878300 30.498600 51.566400 -24.328900 0.000322 -0.000009 -13.927300 -5.179670 -69.999100 -22.291500 -0.000108 -0.000004 10.594600 5.584200 -10.432600 -2.192480 -6.469440 -0.000000 -161.073000 -20.870600 12.522900 39.081100 -0.000007 -0.000012 0.086667 -0.262765 18.254100 40.985400 -0.000006 -0.000013 -10.116100 9.569930 -28.204700 11.754300 -0.000000 0.000003 -0.003957 -0.051005 -18.651500 -2.192510 6.469440 -0.000001 -175.265000 -5.521080 126.730000 -39.081100 -0.002282 -0.040193 0.155357 -0.080822 62.026000 -40.985400 0.000008 0.000006 10.321800 -2.656520 -59.744000 -11.754300 -0.000006 -0.000006 -0.012935 -0.124397 -21.645600
0.000000 0.000000 0.000000 0.000000 0.000000 -0.000000 0.137639 95.470900 11.206500 -85.725500 -11.558500 165.363000 15.735700 0.000005 -0.000001 25.619100 78.615500 -23.189200 8.984550 -0.406207 -0.000000 2.686880 -20.623000 5.384430 16.377300 -0.000001 -0.000001 -0.355852 0.294250 1.067100 6.456720 -0.000001 -0.000000 -2.639020 9.388640 5.550360 12.994200 -0.242716 4.980390 -84.920500 -18.237100 -74.143500 5.348090 -0.000007 -0.000001 -57.566500 9.298120 -56.275600 24.328600 0.000019 0.000005 11.813200 -7.612700 -122.350000 22.291600 -0.000001 0.000005 -6.621360 5.398170 -2.877960 12.994500 -0.242716 -4.980390 94.398100 -11.904700 -69.552100 -5.348130 -0.000001 -0.000004 -73.232000 28.650200 51.578200 -24.328900 0.000322 -0.000009 -9.430760 -2.842340 -73.379100 -22.291500 -0.000108 -0.000004 9.522890 5.572420 -9.813560 -2.192480 -6.469440 -0.000000 -160.635000 -18.577500 14.279200 39.081100 -0.000007 -0.000012 0.158767 -0.306691 27.369600 40.985400 -0.000006 -0.000013 -6.267720 5.241760 -29.373700 11.754300 -0.000000 0.000003 -0.003707 -0.048367 -18.544100 -2.192510 6.469440 -0.000001 -175.800000 -0.318815 133.254000 -39.081100 -0.002282 -0.040193 0.055536 -0.068377 37.385900 -40.985400 0.000008 0.000006 6.778250 5.743240 -64.555300 -11.754300 -0.000006 -0.000006 -0.015260 -0.139448 -22.263000
0.000000 0.000000 0.000000 0.000000 0.000000 -0.000000 -0.363158 95.031500 -1.167780 -88.861300 -12.711000 166.994000 15.735700 0.000005 -0.000001 25.812700 77.907000 -24.178100 8.984550 -0.406207 -0.000000 3.291830 -21.814900 3.930790 16.377300 -0.000001 -0.000001 -0.410862 -0.103605 0.356270 6.456720 -0.000001 -0.000000 -2.902970 9.288110 5.670320 12.994200 -0.242716 4.980390 -85.290300 -19.041100 -75.827800 5.348090 -0.000007 -0.000001 -58.169700 11.301800 -52.703500 24.328600 0.000019 0.000005 12.630000 -7.967300 -121.740000 22.291600 -0.000001 0.000005 -6.553960 5.394460 -2.758490 12.994500 -0.242716 -4.980390 94.057900 -10.538900 -68.799800 -5.348130 -0.000001 -0.000004 -70.916500 26.476600 50.132800 -24.328900 0.000322 -0.000009 -7.479150 -1.919420 -75.685400 -22.291500 -0.000108 -0.000004 10.348300 5.570420 -9.707820 -2.192480 -6.469440 -0.000000 -164.079000 -10.301100 16.354900 39.081100 -0.000007 -0.000012 0.217983 -0.281259 37.776700 40.985400 -0.000006 -0.000013 -2.952120 -0.386226 -29.742700 11.754300 -0.000000 0.000003 -0.002738 -0.037613 -18.106400 -2.192510 6.469440 -0.000001 -173.172000 11.024400 140.146000 -39.081100 -0.002282 -0.040193 -0.039181 0.141547 16.715600 -40.985400 0.000008 0.000006 -1.415400 20.556800 -67.055300 -11.754300 -0.000006 -0.000006 -0.018797 -0.160530 -23.129600
